<!-- Generator: Adobe Illustrator 19.0.0, SVG Export Plug-In  -->
<svg version="1.1"
	 xmlns="http://www.w3.org/2000/svg" xmlns:xlink="http://www.w3.org/1999/xlink" xmlns:a="http://ns.adobe.com/AdobeSVGViewerExtensions/3.0/"
	 x="0px" y="0px" width="126.45px" height="109.405px" viewBox="0 0 126.45 109.405"
	 style="enable-background:new 0 0 126.45 109.405;" xml:space="preserve">
<style type="text/css">
	.st0{opacity:0.24;fill:#2BB673;stroke:#FFFFFF;stroke-miterlimit:10;}
	.st1{opacity:0.37;fill:#C8A5CE;stroke:#FFFFFF;stroke-miterlimit:10;}
	.st2{opacity:0.18;fill:#F37E7F;}
	.st3{fill:none;stroke:#FFFFFF;stroke-miterlimit:10;}
	.st4{opacity:0.47;fill:#F37E7F;stroke:#FFFFFF;stroke-miterlimit:10;}
	.st5{opacity:0.71;fill:#F37E7F;}
</style>
<defs>
</defs>
<path id="XMLID_22_" class="st0" d="M65.571,49.451L2.77,69.48c0,0,16.051,21.679,50.961,38.928c2.692,1.218,5.855-0.24,5.855-0.24
	l62.067-23.601c0,0-3.471,1.971-10.262-0.406C104.6,81.783,76.041,65.203,65.571,49.451z"/>
<path id="XMLID_21_" class="st1" d="M73.267,0.523L7.862,17.203c0,0-11.464,9.349-5.092,52.277l62.801-20.029
	C65.571,49.451,55.973,4.934,73.267,0.523z"/>
<path id="XMLID_20_" class="st2" d="M65.571,9.06c0,0,1.78-10.569,10.217-8.187s31.089,13.651,38.055,19.679
	s8.178,14.91,10.809,32.178s1.092,23.081-0.65,28.701s-8.934,4.442-12.611,2.73c-3.676-1.712-33.746-18.384-45.821-34.71
	c-1.961-2.63-2.477-8.336-2.632-12.604S63.321,14.497,65.571,9.06z"/>
<path id="XMLID_19_" class="st3" d="M7.862,17.203l65.405-16.68c0,0,37.309,14.048,43.905,23.717L51.866,43.05
	C51.866,43.05,34.208,20.623,7.862,17.203z"/>
<path id="XMLID_18_" class="st4" d="M51.866,43.05l65.305-18.81c0,0,2.479,3.688,3.513,7.569c1.034,3.88,7.739,31.578,4.286,46.214
	c-1.703,7.555-5.515,7.381-5.515,7.381s-64.137,24.094-61.984,23.491C65.017,106.783,67.517,79.173,51.866,43.05z"/>
<path id="XMLID_15_" class="st5" d="M60.561,70.879c-2.744-18.726-7.587-28.653-14.851-35.191
	c-7.264-6.538-23.488-16.304-32.286-18.887C4.626,14.218,2.77,25.679,2.77,25.679c-2.346,5.896-2.906,25.506-2.744,30.133
	s0.7,10.816,2.744,13.668c12.591,17.703,43.949,35.783,47.783,37.64c3.834,1.856,9.484,3.753,11.3-2.341
	C63.669,98.685,63.306,89.605,60.561,70.879z"/>
</svg>